<svg width="44" height="35" viewBox="0 0 44 35" fill="none" xmlns="http://www.w3.org/2000/svg">
<path d="M0 13.7115H28.875L26.125 30.1655H3.4375L0 13.7115Z" fill="white"/>
<path d="M28.5312 0H31.625L26.125 30.1656H23.0312L28.5312 0Z" fill="white"/>
<ellipse cx="24.75" cy="30.1656" rx="4.125" ry="4.11349" fill="#6AA434"/>
<ellipse cx="4.125" cy="30.1656" rx="4.125" ry="4.11349" fill="#6AA434"/>
<rect x="35.75" width="2.74233" height="6.875" transform="rotate(90 35.75 0)" fill="white"/>
<rect x="26.125" y="15.0828" width="17.1875" height="1.37116" rx="0.685582" fill="white"/>
<rect x="26.125" y="19.1963" width="10.3125" height="1.37116" rx="0.685581" fill="white"/>
<rect x="21.3125" y="22.6241" width="10.3125" height="1.37116" rx="0.685578" fill="white"/>
<rect x="33.6875" y="22.6241" width="10.3125" height="1.37116" rx="0.685578" fill="white"/>
<rect x="29.5625" y="26.0521" width="10.3125" height="1.37117" rx="0.685584" fill="white"/>
<rect x="30.9375" y="28.7944" width="3.38359" height="1.37116" rx="0.685582" fill="white"/>
<ellipse cx="24.75" cy="30.1655" rx="2.75" ry="2.74232" fill="white"/>
<ellipse cx="4.125" cy="30.1655" rx="2.75" ry="2.74232" fill="white"/>
<path d="M14.8609 14.8909C14.8609 14.8909 18.1964 11.4344 20.1431 10.6656C21.886 9.97737 23.6925 10.4566 23.6925 10.4566C23.6925 10.4566 23.3452 12.4233 22 13.7116C20.4898 15.1579 15.9814 16.6176 15.9814 16.6176L14.8609 14.8909Z" fill="white"/>
<path d="M12.6688 16.2169C12.6688 16.2169 9.67204 11.4809 7.62786 10.1444C5.79778 8.94792 3.61902 9.07125 3.61902 9.07125C3.61902 9.07125 3.55125 11.4016 4.78488 13.1908C6.16978 15.1993 10.9795 17.9278 10.9795 17.9278L12.6688 16.2169Z" fill="white"/>
<path d="M14.6357 16.6429C14.6357 16.6429 15.0973 13.4267 15.8622 12.2358C16.5471 11.1697 17.7302 10.7202 17.7302 10.7202C17.7302 10.7202 18.3198 11.9383 18.0917 13.1773C17.8356 14.5682 15.9369 17.1497 15.9369 17.1497L14.6357 16.6429Z" fill="white"/>
<path d="M19.3208 8.53907C19.3208 8.53907 18.9164 9.26192 18.2198 9.5902C17.5962 9.88411 16.9215 9.75085 16.9215 9.75085C16.9215 9.75085 17.0023 9.02047 17.4656 8.51563C17.9858 7.94888 18.7604 7.79431 18.7604 7.79431L20.0675 7.42146L19.3208 8.53907Z" fill="white"/>
<path d="M2.2 10.7692C2.65103 10.9443 2.79455 10.9897 3.3 11.5695C3.75252 12.0886 3.72751 12.8051 3.72751 12.8051C3.72751 12.8051 3.03456 12.8476 2.42179 12.5395C1.73387 12.1936 1.60199 12.0724 1.341 11.5694C1.19138 11.2811 1.11545 10.7692 1.11545 10.7692C1.11545 10.7692 1.89079 10.6491 2.2 10.7692Z" fill="white"/>
<ellipse cx="13.75" cy="13.7117" rx="2.0625" ry="2.05674" fill="white"/>
<ellipse cx="10.6562" cy="12.6833" rx="1.71875" ry="1.71395" fill="white"/>
<path d="M13.0521 9.84962C14.0001 9.72499 13.5743 10.6989 13.8669 10.5405C13.9896 10.4741 13.7561 9.09136 14.6895 9.34077C15.6229 9.59018 14.2259 10.6364 14.8003 10.7899C15.0337 10.8523 15.4877 9.84962 15.8524 10.5978C16.1891 11.2886 14.859 12.2251 14.6256 12.1628C13.8966 11.968 14.2401 12.0597 13.511 11.8649C13.2776 11.8026 12.2498 9.9551 13.0521 9.84962Z" fill="white"/>
<path d="M7.90754 9.83997C8.62123 9.18353 9.36949 10.5473 9.63032 10.2507C9.73967 10.1263 8.79998 8.04131 10.12 7.92009C11.44 7.79887 10.0701 10.2103 10.7736 10.1457C11.0594 10.1194 11.2703 9.28207 11.8669 9.49995C12.7262 9.81372 11.6062 11.5963 11.3203 11.6226C10.4274 11.7046 10.4154 11.7683 9.52241 11.8503C9.23654 11.8765 7.22846 10.4646 7.90754 9.83997Z" fill="white"/>
</svg>
